<?xml version="1.0" encoding="utf-8"?>
<!-- Generator: Adobe Illustrator 17.1.0, SVG Export Plug-In . SVG Version: 6.00 Build 0)  -->
<!DOCTYPE svg PUBLIC "-//W3C//DTD SVG 1.1//EN" "http://www.w3.org/Graphics/SVG/1.1/DTD/svg11.dtd">
<svg version="1.1" id="Layer_1" xmlns="http://www.w3.org/2000/svg" xmlns:xlink="http://www.w3.org/1999/xlink" x="0px" y="0px"
	 viewBox="257 257 86 86" enable-background="new 257 257 86 86" xml:space="preserve">
<linearGradient id="SVGID_2_" gradientUnits="userSpaceOnUse" x1="315.0545" y1="284.6395" x2="296.7441" y2="266.3291" gradientTransform="matrix(1 0 0 -1 0 600)">
	<stop  offset="0" style="stop-color:#00ED92"/>
	<stop  offset="1" style="stop-color:#09CFED"/>
</linearGradient>
<path fill="url(#SVGID_2_)" d="M305.505,312.321c7.002,0,12.678,5.636,12.678,12.589s-5.676,12.589-12.678,12.589
	s-12.678-5.636-12.678-12.589S298.503,312.321,305.505,312.321z"/>
<linearGradient id="SVGID_1_" gradientUnits="userSpaceOnUse" x1="288.986" y1="297.6096" x2="288.986" y2="258.4272" gradientTransform="matrix(1 0 0 -1 0 600)">
	<stop  offset="0" style="stop-color:#FFE034"/>
	<stop  offset="1" style="stop-color:#FF46FF"/>
</linearGradient>
<path fill="url(#SVGID_1_)" d="M288.986,292.485c11.039,0,19.987,8.881,19.987,19.835c0,10.955-8.949,19.835-19.987,19.835
	c-11.039,0-19.987-8.88-19.987-19.835C268.999,301.366,277.948,292.485,288.986,292.485z"/>
<linearGradient id="SVGID_3_" gradientUnits="userSpaceOnUse" x1="301.664" y1="326.6793" x2="301.664" y2="268.6038" gradientTransform="matrix(1 0 0 -1 0 600)">
	<stop  offset="0" style="stop-color:#00C6FF"/>
	<stop  offset="1" style="stop-color:#006EFF"/>
</linearGradient>
<path fill="url(#SVGID_3_)" d="M301.664,263.491c16.762,0,30.351,13.493,30.351,30.137c0,16.644-13.589,30.137-30.351,30.137
	s-30.351-13.493-30.351-30.137S284.901,263.491,301.664,263.491z"/>
<g>
	<path fill="#FFFFFF" d="M306.421,298.349c-0.689,0.609-1.073,1.414-1.073,2.762c0,0.257,0.014,0.483,0.037,0.692
		C305.824,300.718,306.172,299.562,306.421,298.349z"/>
	<path fill="#FFFFFF" d="M324.315,301.144c0-3.47-2.506-3.429-5.941-5.305c-0.76-0.415-0.776-0.993-0.888-1.377
		c-0.084-0.288-0.145-0.988-0.189-1.598c0.322-0.433,0.531-1.066,0.686-1.975c0.146,0.011,0.257-0.07,0.315-0.207
		c0.034-0.081,0.204-0.56,0.275-0.924c0.059-0.302,0.12-0.458,0.134-0.68c0.017-0.264-0.082-0.551-0.241-0.599
		c-0.079-0.024-0.148-0.029-0.211-0.024c0.057-0.723,0.092-1.331,0.099-1.842c0.263-0.108,0.359-0.206,0.359-0.25
		c0-0.124,0.219-3.612-3.892-3.612c-0.902,0-1.597,0.329-2.119,0.758c-1.214,0.109-1.504,0.844-1.427,3.359
		c0.011,0.463,0.037,0.992,0.074,1.596c-0.076-0.017-0.164-0.018-0.268,0.014c-0.159,0.048-0.258,0.335-0.241,0.599
		c0.014,0.222,0.075,0.379,0.134,0.68c0.071,0.364,0.241,0.843,0.275,0.924c0.063,0.148,0.185,0.235,0.349,0.207
		c0.004-0.001,0.006-0.002,0.01-0.003c0.14,0.756,0.342,1.342,0.644,1.781c0.051,0.074,0.104,0.143,0.161,0.209
		c-0.043,0.607-0.105,1.3-0.188,1.587c-0.112,0.384-0.12,0.977-0.888,1.377c-0.49,0.256-0.953,0.475-1.394,0.675
		c1.702,1.167,2.258,3.729,2.713,6.894c0.031,0.218,0.046,0.403,0.062,0.591c0.69,0.014,1.412,0.024,2.159,0.027
		c3.253,0.013,5.897,0.052,7.26-0.015C324.573,303.891,324.315,302.578,324.315,301.144z"/>
</g>
<g>
	<path fill="#FFFFFF" d="M289.331,303.408c0.407-2.828,0.902-5.165,2.215-6.466c-0.185-0.097-0.369-0.194-0.569-0.301
		c-0.758-0.407-0.983-0.788-1.093-1.18c-0.084-0.298-0.145-1.096-0.188-1.786c0.385-0.354,0.701-0.786,0.835-1.278
		c0.079-0.289,0.154-0.61,0.221-0.95c0.364-0.119,0.546-0.536,0.642-1.176c0.093-0.625,0.128-1.218-0.265-1.213
		c-0.025,0-0.114,0.006-0.134,0.014c0.399-2.275-0.008-4.264-1.506-5.03c-1.524-0.78-4.07-1.029-5.316,1.554
		c-0.4,0.831-0.148,2.625-0.045,3.481c-0.025-0.013-0.119-0.021-0.151-0.018c-0.367,0.034-0.346,0.583-0.276,1.211
		c0.062,0.549,0.276,1.062,0.666,1.186c0.066,0.336,0.138,0.655,0.212,0.942c0.122,0.469,0.395,0.885,0.738,1.231
		c-0.043,0.699-0.105,1.528-0.191,1.833c-0.11,0.392-0.335,0.773-1.092,1.18c-4.312,2.317-5.294,2.173-5.596,4.845
		c-0.138,1.225-0.88,2.388,1.989,2.502c2.109,0.083,4.722,0.045,6.998,0.045c0.625,0,1.23-0.024,1.844-0.039
		C289.286,303.807,289.3,303.624,289.331,303.408z"/>
	<path fill="#FFFFFF" d="M296.377,301.216c-0.101-0.68-0.245-1.17-0.498-1.563C296.026,300.187,296.191,300.709,296.377,301.216z"/>
</g>
<path fill="#FFFFFF" d="M292.968,306.022c-2.198-0.243-2.456-1.225-2.166-3.223c0.42-2.896,0.936-5.182,2.782-5.925
	c1.178-0.474,3.5-1.075,4.259-1.719c0.66-0.56,0.857-1.655,0.939-2.891c-0.643,0.181-1.66,0.109-1.66,0.109
	c0.14-0.136,0.43-0.339,0.515-0.52c-0.995-0.117-2.159-0.394-2.159-0.394s0.859-0.654,0.842-1.263
	c-0.018-0.679-0.338-1.039-0.457-2.168c-0.172-1.629-0.081-2.962,1.215-5.417c0.902-1.709,2.468-1.895,3.087-1.41
	c0.196-0.967,3.255-1.395,4.902,1.41c1.386,2.361,1.323,4.226,1.105,5.335c-0.227,1.153-0.27,1.569-0.348,2.159
	c-0.111,0.839,0.743,1.246,0.743,1.246s-1.041,0.429-2.036,0.546c0.074,0.213,0.448,0.428,0.605,0.557c0,0-1.134-0.031-1.772-0.198
	c0.082,1.239,0.279,2.338,0.94,2.899c0.759,0.644,3.117,1.105,4.23,1.719c2.134,1.177,2.365,3.767,2.611,5.923
	c0.239,2.098-0.373,3.069-2.174,3.21C306.38,306.21,294.539,306.195,292.968,306.022z"/>
</svg>
