<?xml version="1.0" encoding="utf-8"?>
<!-- Generator: Adobe Illustrator 16.0.0, SVG Export Plug-In . SVG Version: 6.00 Build 0)  -->
<!DOCTYPE svg PUBLIC "-//W3C//DTD SVG 1.1//EN" "http://www.w3.org/Graphics/SVG/1.1/DTD/svg11.dtd">
<svg version="1.1" id="Layer_1" xmlns="http://www.w3.org/2000/svg" xmlns:xlink="http://www.w3.org/1999/xlink" x="0px" y="0px"
	 width="207.824px" height="77.059px" viewBox="0 0 207.824 77.059" enable-background="new 0 0 207.824 77.059"
	 xml:space="preserve">
<path fill="#1B9BD0" d="M46.169,35.703c-1.153-3.105-4.138-5.332-7.643-5.332c-4.496,0-8.154,3.661-8.154,8.155
	c0,4.5,3.658,8.158,8.154,8.158c3.504,0,6.49-2.225,7.643-5.332h6.027c-1.309,6.348-6.94,11.133-13.67,11.133
	c-7.695,0-13.955-6.262-13.955-13.959c0-7.694,6.26-13.958,13.955-13.958c3.708,0,7.198,1.439,9.83,4.051l3.979-4.011
	c-3.697-3.668-8.6-5.688-13.809-5.688c-10.81,0-19.605,8.796-19.605,19.606s8.796,19.608,19.605,19.608
	c10.813,0,19.607-8.799,19.607-19.608v-2.824L46.169,35.703L46.169,35.703z M38.527,41.841c-1.824,0-3.312-1.483-3.312-3.313
	c0-1.825,1.487-3.311,3.312-3.311c1.828,0,3.314,1.484,3.314,3.311C41.841,40.357,40.355,41.841,38.527,41.841z"/>
<g>
	<g>
		<path fill="#2F313D" d="M95.355,34.734l-0.378,4.067c-0.561-0.193-1.316-0.336-2.048-0.336c-1.461,0-2.334,0.704-2.334,2.307
			v6.914h-4.082V34.891h3.912v1.475c0.744-1.251,1.918-1.826,3.496-1.826C94.535,34.54,95.042,34.641,95.355,34.734z"/>
	</g>
	<g>
		<path fill="#2F313D" d="M110.343,41.283c0,3.871-2.946,6.739-6.951,6.739c-4.005,0-6.938-2.868-6.938-6.739
			c0-3.875,2.933-6.743,6.938-6.743C107.396,34.54,110.343,37.408,110.343,41.283z M100.357,41.283c0,1.72,1.443,3.069,3.035,3.069
			c1.604,0,3.047-1.351,3.047-3.069c0-1.723-1.443-3.072-3.047-3.072C101.8,38.21,100.357,39.56,100.357,41.283z"/>
	</g>
	<g>
		<path fill="#2F313D" d="M129.498,34.891h4.289l-4.408,12.795h-4.551l-2.491-7.657l-2.465,7.657h-4.524l-4.422-12.795h4.342
			l2.465,8.126l2.582-8.126h4.084l2.605,8.163L129.498,34.891z"/>
	</g>
	<path fill="#2F313D" d="M76.962,40.844h2.922v2.457c-1.074,0.558-2.387,0.9-3.308,0.9c-2.969,0-5.513-2.385-5.513-5.541
		c0-3.099,2.52-5.616,5.461-5.616c1.662,0,3.479,0.769,4.785,2.013l2.558-3.207c-1.842-1.695-4.655-2.62-7.316-2.62
		c-5.654,0-9.876,4.056-9.876,9.434c0,5.407,4.119,9.487,9.568,9.487c2.507,0,5.525-1.006,7.445-2.411l0.003-8.32h-6.729V40.844
		L76.962,40.844z"/>
	<g>
		<path fill="#2F313D" d="M148.708,41.437c0,3.821-2.752,6.572-6.247,6.572c-1.788,0-3.04-0.717-3.913-1.812v1.487h-2.728V28.904
			h2.728v7.772c0.873-1.094,2.125-1.812,3.913-1.812C145.957,34.864,148.708,37.617,148.708,41.437z M138.367,41.437
			c0,2.284,1.523,4.004,3.769,4.004c2.349,0,3.769-1.812,3.769-4.004c0-2.188-1.42-4.002-3.769-4.002
			C139.891,37.435,138.367,39.156,138.367,41.437z"/>
	</g>
	<g>
		<path fill="#2F313D" d="M164.411,41.437c0,3.744-2.868,6.572-6.728,6.572c-3.861,0-6.719-2.828-6.719-6.572
			s2.855-6.573,6.719-6.573C161.542,34.864,164.411,37.693,164.411,41.437z M153.77,41.437c0,2.362,1.684,4.004,3.914,4.004
			c2.229,0,3.924-1.642,3.924-4.004c0-2.36-1.695-4.002-3.924-4.002C155.453,37.435,153.77,39.077,153.77,41.437z"/>
	</g>
	<g>
		<path fill="#2F313D" d="M170.631,37.668v5.439c0,1.669,0.889,2.333,1.982,2.333c0.848,0,1.773-0.378,2.518-0.85l1.082,2.182
			c-1.005,0.676-2.257,1.236-3.834,1.236c-2.83,0-4.486-1.525-4.486-4.851v-5.491h-2.49v-2.476h2.49V31.41h2.738v3.783h4.787v2.476
			L170.631,37.668L170.631,37.668z"/>
	</g>
	<g>
		<path fill="#2F313D" d="M183.57,37.251c-1.502,0-2.359,0.602-2.359,1.487c0,0.888,0.911,1.124,2.059,1.291l1.291,0.196
			c2.728,0.404,4.344,1.55,4.344,3.691c0,2.396-2.088,4.08-5.688,4.08c-1.277,0-3.547-0.248-5.359-1.604l1.267-2.046
			c0.888,0.69,2.101,1.276,4.121,1.276c1.877,0,2.843-0.586,2.843-1.526c0-0.718-0.667-1.175-2.165-1.383l-1.303-0.169
			c-2.779-0.379-4.238-1.642-4.238-3.666c0-2.463,1.98-4.004,5.162-4.004c1.972,0,3.757,0.483,5.062,1.32l-1.174,2.125
			C186.673,37.865,185.134,37.251,183.57,37.251z"/>
	</g>
</g>
</svg>
