<?xml version="1.0" encoding="utf-8"?>
<!-- Generator: Adobe Illustrator 18.1.0, SVG Export Plug-In . SVG Version: 6.00 Build 0)  -->
<svg version="1.1" id="Layer_1" xmlns="http://www.w3.org/2000/svg" xmlns:xlink="http://www.w3.org/1999/xlink" x="0px" y="0px"
	 viewBox="0 0 220 55" enable-background="new 0 0 220 55" xml:space="preserve">
<g>
	<path fill="#414142" d="M51.7,32.4c0.1-0.1,0.4-0.3,0.8-0.5c0.4-0.2,0.8-0.5,1.2-0.8c0.5-0.3,1-0.7,1.5-1.1
		c0.6-0.4,1.1-0.8,1.6-1.2l0.1-1.2c0.3-2.4,0.7-4.6,1.2-6.6c0.6-2,1.2-3.8,2-5.4c0.8-1.6,1.6-3,2.5-4.2c0.9-1.2,1.8-2.2,2.7-3
		c0.9-0.8,1.8-1.4,2.8-1.8C69.1,6.2,70,6,70.8,6c0.6,0,1.1,0.1,1.6,0.3c0.5,0.2,0.9,0.5,1.2,1c0.3,0.4,0.6,1,0.8,1.6
		c0.2,0.6,0.3,1.4,0.3,2.3c0,1.1-0.2,2.2-0.5,3.3c-0.3,1.2-0.8,2.3-1.4,3.5c-0.6,1.2-1.3,2.4-2.1,3.6C69.9,22.8,69,23.9,68,25
		c-1,1.1-2.1,2.1-3.2,3.1c-1.2,1-2.4,1.8-3.6,2.6c0,0.7,0,1.2-0.1,1.7c0,0.4,0,0.7,0,0.9c0,0.2,0,0.4,0,0.4v0.2c0,0.1,0,0.2,0.1,0.3
		c0,0.1,0.1,0.2,0.2,0.2c0.1,0.1,0.3,0.1,0.5,0.1c0.2,0,0.5,0,0.8,0c0.5,0,1.2-0.1,2.5-0.5c0,0,5-1.5,5.1-1.5c0.1,0,1.3-0.5,1.5-0.4
		c0.2,0.1,0.3,0.8,0.4,0.9c0.1,0.2,0.2,0.4,0.3,0.6c0.1,0.2,0.1,0.5,0.1,0.7c0,0.2,0,0.4-0.1,0.7c-0.1,0.2,1,0.2,0.8,0.4
		c-0.1,0.2-1.5,0.6-1.7,0.7c-0.2,0.1-0.4,0.2-0.7,0.3c-1.1,0.4-2.3,0.8-3.4,1.2c-0.5,0.1-1,0.3-1.6,0.4c-0.6,0.1-1.1,0.3-1.7,0.4
		c-0.6,0.1-1.2,0.2-1.7,0.3c-0.6,0.1-1.2,0.1-1.7,0.1c-0.8,0-1.5-0.1-2.1-0.4c-0.5-0.3-1-0.7-1.3-1.2c-0.3-0.5-0.5-1.1-0.7-1.7
		c-0.1-0.7-0.2-1.3-0.2-2.1c-1,0.7-1.8,1.3-2.5,1.7c-0.7,0.4-1.1,0.6-1.3,0.6c-0.2,0-0.4-0.1-0.6-0.2c-0.2-0.1-0.3-0.3-0.5-0.5
		c-0.1-0.2-0.3-0.5-0.4-0.7c-0.1-0.3-0.1-0.5-0.1-0.8c0-0.2,0-0.4,0.1-0.6C51.4,32.7,51.5,32.6,51.7,32.4 M61.4,26.4
		c0.6-0.6,1.2-1.3,1.8-2c0.6-0.7,1.3-1.5,1.9-2.2c0.6-0.8,1.2-1.6,1.8-2.4c0.6-0.8,1.1-1.6,1.6-2.4c0.5-0.8,0.9-1.6,1.2-2.4
		c0.3-0.8,0.5-1.5,0.6-2.2c0-0.2,0.1-0.4,0.1-0.7c0-0.2,0-0.4,0-0.6c0-0.7-0.1-1.1-0.3-1.4c-0.2-0.3-0.4-0.4-0.7-0.4
		c-0.4,0-0.8,0.2-1.3,0.6c-0.5,0.4-1,0.9-1.5,1.6c-0.5,0.7-1.1,1.6-1.6,2.6c-0.5,1-1.1,2.1-1.5,3.4c-0.5,1.2-0.9,2.6-1.2,4
		C61.8,23.3,61.6,24.8,61.4,26.4"/>
	<path fill="#414142" d="M77.2,38c-1.1,0-2-0.2-2.8-0.6c-0.8-0.4-1.5-0.9-2-1.6c-0.5-0.7-0.9-1.4-1.2-2.3c-0.3-0.9-0.4-1.8-0.4-2.7
		c0-0.6,0.1-1.3,0.2-2c0.1-0.7,0.3-1.4,0.6-2.1c0.3-0.7,0.6-1.3,1-2c0.4-0.6,0.8-1.2,1.4-1.6c0.5-0.5,1.1-0.8,1.7-1.1
		c0.6-0.3,1.4-0.4,2.1-0.4c0.6,0,1.2,0.1,1.8,0.3c0.5,0.2,1,0.5,1.4,0.9c0.4,0.4,0.7,0.8,1,1.3c0.2,0.5,0.3,1.1,0.3,1.8
		c0,0.7-0.2,1.4-0.5,2.1c-0.3,0.7-0.8,1.4-1.4,2c-0.6,0.6-1.4,1.2-2.2,1.7c-0.9,0.5-1.8,0.9-2.8,1.1c0.2,0.3,0.3,0.6,0.5,0.8
		c0.2,0.2,0.3,0.4,0.5,0.5c0.2,0.1,0.4,0.2,0.5,0.2c0.2,0,0.4,0.1,0.6,0.1c0.7,0,1.4-0.1,2.2-0.4c0.8-0.3,1.5-0.6,2.2-1
		c0.7-0.4,1.4-0.9,2-1.3c0.6-0.5,1.2-0.9,1.6-1.4l2.2,2.3c-1,1-2.1,2-3.2,2.8c-0.5,0.3-1,0.7-1.6,1c-0.6,0.3-1.2,0.6-1.8,0.9
		c-0.6,0.3-1.3,0.5-1.9,0.6C78.6,38,77.9,38,77.2,38 M75,30c0.4,0,0.9-0.1,1.3-0.3c0.5-0.2,0.9-0.5,1.4-0.8c0.4-0.3,0.8-0.7,1.1-1.1
		c0.3-0.4,0.4-0.8,0.4-1.1c0-0.5-0.1-0.9-0.3-1.3c-0.2-0.3-0.4-0.5-0.7-0.5c-0.5,0-0.9,0.1-1.3,0.3c-0.3,0.2-0.6,0.4-0.9,0.7
		c-0.2,0.3-0.4,0.6-0.6,1c-0.1,0.4-0.3,0.7-0.3,1.1c-0.1,0.4-0.1,0.7-0.1,1.1C75,29.4,75,29.7,75,30"/>
	<path fill="#414142" d="M102.8,33.8c-0.3,0.4-0.6,0.8-1.1,1.3c-0.4,0.5-0.9,1-1.5,1.4c-0.5,0.4-1.1,0.8-1.8,1.1
		c-0.6,0.3-1.3,0.5-1.9,0.5c-0.8,0-1.4-0.2-1.9-0.7c-0.5-0.5-0.9-1.2-1.3-2.1c-0.3,0.3-0.6,0.6-1,1c-0.4,0.3-0.8,0.6-1.3,0.9
		c-0.5,0.3-1,0.5-1.5,0.7c-0.5,0.2-1,0.3-1.5,0.3c-0.5,0-1.1-0.1-1.6-0.3c-0.5-0.2-1-0.5-1.4-1c-0.4-0.4-0.7-0.9-1-1.5
		c-0.2-0.6-0.4-1.3-0.4-2c0-0.9,0.1-1.7,0.4-2.6c0.2-0.9,0.6-1.8,1-2.6c0.4-0.9,0.9-1.7,1.5-2.4c0.6-0.8,1.2-1.4,1.9-2
		c0.7-0.6,1.4-1,2.2-1.4c0.8-0.3,1.5-0.5,2.3-0.5c0.3,0,0.5,0.1,0.6,0.2c0.1,0.1,0.3,0.2,0.4,0.4c0.1,0.1,0.2,0.3,0.3,0.4
		c0.1,0.1,0.2,0.2,0.3,0.3c0.1,0.1,0.3,0.1,0.4,0.1c0.1,0,0.3,0,0.4,0c0.1,0,0.3,0,0.4,0c0.1,0,0.3,0,0.4,0c0.2,0,0.3,0,0.5,0.1
		c0.1,0,0.3,0.1,0.4,0.2c0.1,0.1,0.2,0.3,0.3,0.5c0.1,0.2,0.1,0.5,0.1,0.8c0,0.5-0.1,1.2-0.2,1.8c-0.1,0.7-0.2,1.4-0.4,2.1
		c-0.1,0.7-0.3,1.4-0.4,2.1c-0.1,0.7-0.2,1.4-0.2,2c0,0.5,0.1,1,0.1,1.3c0.1,0.3,0.3,0.5,0.6,0.5c0.2,0,0.5-0.1,0.8-0.2
		c0.3-0.1,0.5-0.3,0.8-0.5c0.3-0.2,0.5-0.4,0.8-0.7c0.3-0.2,0.5-0.5,0.8-0.8c0.6-0.6,1.1-1.3,1.7-2.1L102.8,33.8z M88.2,32.5
		c0,0.3,0,0.6,0.1,0.8c0,0.3,0.1,0.5,0.2,0.7c0.1,0.2,0.2,0.4,0.4,0.5c0.2,0.1,0.4,0.2,0.7,0.2c0.4,0,0.8-0.2,1.1-0.5
		c0.3-0.4,0.6-0.8,0.9-1.3c0.2-0.5,0.5-1,0.6-1.6c0.2-0.5,0.3-1,0.3-1.4l1-5c-0.5,0-0.9,0.1-1.4,0.4c-0.4,0.2-0.9,0.5-1.3,0.9
		c-0.4,0.4-0.8,0.9-1.1,1.4c-0.3,0.5-0.6,1.1-0.9,1.6c-0.2,0.6-0.4,1.1-0.6,1.7C88.3,31.4,88.2,32,88.2,32.5"/>
	<path fill="#414142" d="M120.1,34.7c-0.8,0.6-1.6,1.2-2.4,1.7c-0.3,0.2-0.7,0.4-1,0.6c-0.4,0.2-0.7,0.4-1.1,0.5
		c-0.4,0.2-0.7,0.3-1,0.4c-0.3,0.1-0.6,0.1-0.9,0.1c-0.2,0-0.4,0-0.7-0.1c-0.3-0.1-0.7-0.2-1-0.4c-0.4-0.2-0.7-0.5-1.1-0.9
		c-0.4-0.4-0.7-0.9-1-1.6c-0.4,0.4-0.9,0.8-1.3,1.2c-0.5,0.4-1,0.7-1.5,1c-0.5,0.3-1,0.5-1.5,0.7c-0.5,0.2-1,0.2-1.6,0.2
		c-0.7,0-1.4-0.2-1.9-0.5c-0.5-0.3-1-0.7-1.4-1.3c-0.4-0.5-0.6-1.1-0.8-1.8c-0.2-0.7-0.3-1.4-0.3-2.1c0-0.7,0.1-1.5,0.3-2.2
		c0.2-0.7,0.5-1.5,0.8-2.2c0.4-0.7,0.8-1.4,1.3-2c0.5-0.6,1.1-1.2,1.7-1.7c0.7-0.5,1.4-0.9,2.1-1.2c0.8-0.3,1.6-0.5,2.4-0.6
		c0-1.5,0.2-2.9,0.4-4.3c0.2-1.4,0.5-2.8,0.9-4.1c0.4-1.3,0.8-2.5,1.3-3.6c0.5-1.1,1.1-2,1.7-2.8c0.6-0.8,1.2-1.4,1.9-1.9
		c0.7-0.5,1.4-0.7,2.1-0.7c0.5,0,1,0.1,1.4,0.4c0.4,0.3,0.7,0.7,0.9,1.1c0.2,0.5,0.4,1,0.5,1.6c0.1,0.6,0.2,1.2,0.2,1.9
		c0,0.4,0,0.8-0.1,1.2c-0.1,1.6-0.4,3.1-0.8,4.6c-0.4,1.4-0.9,2.8-1.4,4.2c-0.5,1.4-1.1,2.7-1.7,4c-0.6,1.3-1.2,2.7-1.8,4.2
		c-0.1,0.2-0.1,0.4-0.2,0.6c-0.1,0.2-0.1,0.5-0.2,0.7c-0.1,0.3-0.1,0.5-0.1,0.8c0,0.3-0.1,0.6-0.1,0.8c0,0.3,0,0.6,0.1,0.9
		c0,0.3,0.1,0.6,0.2,0.8c0.1,0.2,0.2,0.4,0.4,0.6c0.2,0.1,0.3,0.2,0.6,0.2c0.2,0,0.5,0,0.7-0.1c0.3-0.1,0.5-0.2,0.8-0.4
		c0.3-0.1,0.6-0.3,0.9-0.5c0.3-0.2,0.6-0.4,0.8-0.6c0.6-0.5,1.3-1,2-1.6L120.1,34.7z M108.3,25.1c-0.8,0.4-1.4,0.9-2,1.4
		c-0.6,0.6-1.1,1.2-1.5,1.9c-0.4,0.7-0.7,1.4-0.9,2.1c-0.2,0.7-0.3,1.3-0.3,1.9c0,0.2,0,0.5,0.1,0.7c0.1,0.2,0.1,0.4,0.3,0.6
		c0.1,0.2,0.3,0.3,0.6,0.4c0.2,0.1,0.6,0.2,1,0.2c0.2,0,0.4-0.1,0.6-0.2c0.2-0.1,0.4-0.2,0.6-0.4c0.2-0.2,0.4-0.4,0.5-0.6
		c0.2-0.2,0.3-0.4,0.5-0.7c0.3-0.5,0.6-1.1,0.9-1.8c0-0.2-0.1-0.4-0.1-0.8c0-0.3,0-0.7-0.1-1.2c0-0.4,0-0.9,0-1.3c0-0.5,0-0.9,0-1.3
		c0-0.4,0-0.7,0-0.9C108.4,25.2,108.3,25.1,108.3,25.1 M116.4,12.7c0.1-0.8,0.1-1.4,0.1-1.9c0-0.6-0.1-1-0.2-1.3
		c-0.1-0.2-0.3-0.4-0.5-0.4c-0.4,0-0.7,0.2-1,0.7c-0.3,0.5-0.6,1.1-0.8,1.8c-0.2,0.7-0.4,1.5-0.6,2.4c-0.2,0.9-0.3,1.7-0.4,2.5
		c-0.1,0.8-0.2,1.5-0.3,2.2c-0.1,0.7-0.1,1.1-0.1,1.4c0,0.6-0.1,1.1-0.1,1.6c0,0.5,0,1-0.1,1.4c0,0.4,0,0.8,0,1.1V25v0.2
		c0.6-1.5,1.2-3,1.8-4.4c0.2-0.6,0.5-1.3,0.7-2c0.2-0.7,0.4-1.4,0.6-2.1c0.2-0.7,0.4-1.4,0.5-2.1C116.2,13.9,116.3,13.3,116.4,12.7"
		/>
	<path fill="#414142" d="M143.2,32.2c0,1.3-0.1,2.7-0.2,4.1c-0.2,1.4-0.4,2.8-0.7,4.2c-0.3,1.4-0.8,2.7-1.4,3.9
		c-0.6,1.2-1.3,2.3-2.1,3.2c-0.8,0.9-1.8,1.7-2.9,2.2c-1.1,0.5-2.4,0.8-3.8,0.8c-0.3,0-0.6,0-0.9-0.1c-0.4,0-0.7-0.1-1.1-0.2
		c-0.4-0.1-0.8-0.2-1.2-0.3c-0.4-0.1-0.7-0.3-1.1-0.5c-0.3-0.2-0.6-0.4-0.8-0.7c-0.2-0.3-0.3-0.6-0.3-0.9c0-0.2,0-0.4,0.1-0.7
		c0.1-0.3,0.2-0.5,0.3-0.8c0.2-0.3,0.4-0.5,0.6-0.7c0.2-0.2,0.5-0.3,0.8-0.3c0.4,0,0.7,0.1,1.1,0.2c0.4,0.1,0.7,0.3,1.1,0.4
		c0.4,0.2,0.8,0.3,1.2,0.4c0.4,0.1,0.9,0.2,1.3,0.2c0.5,0,1.1-0.3,1.6-0.8c0.5-0.5,1-1.3,1.5-2.1c0.5-0.9,0.9-1.9,1.3-3
		c0.4-1.1,0.7-2.2,1-3.3c-0.5,0.5-1.1,1-1.7,1.4c-0.6,0.4-1.3,0.8-2.1,1.2c-0.8,0.3-1.7,0.6-2.7,0.8c-1,0.2-2.2,0.3-3.5,0.3
		c-1.5,0-2.9-0.3-4.2-0.9c-1.2-0.6-2.3-1.5-3.2-2.5c-0.9-1.1-1.6-2.3-2-3.7c-0.5-1.4-0.7-2.9-0.7-4.4c0-2,0.2-4,0.7-5.8
		c0.5-1.8,1.2-3.6,2-5.1c0.9-1.6,1.9-3,3-4.3c1.2-1.3,2.4-2.4,3.8-3.3c1.3-0.9,2.8-1.6,4.2-2.1c1.5-0.5,3-0.7,4.4-0.7
		c0.9,0,1.8,0.1,2.5,0.4c0.8,0.3,1.5,0.7,2,1.3c0.6,0.6,1,1.3,1.4,2.2c0.3,0.9,0.5,2,0.5,3.2c0,0.5-0.1,1-0.2,1.4
		c-0.1,0.5-0.3,0.9-0.6,1.4c-0.4,0.5-0.7,0.9-1.1,1.1c-0.3,0.2-0.7,0.3-1,0.3c-0.2,0-0.5-0.1-0.7-0.2c-0.2-0.1-0.4-0.3-0.5-0.5
		c-0.1-0.2-0.3-0.4-0.4-0.7c-0.1-0.3-0.1-0.5-0.1-0.8c0-0.2,0-0.4,0.1-0.6c0.1-0.2,0.1-0.4,0.2-0.6c0.1-0.2,0.1-0.4,0.2-0.6
		c0.1-0.2,0.1-0.5,0.1-0.7c0-1.1-0.2-2-0.8-2.6c-0.5-0.6-1.1-0.9-1.9-0.9c-0.9,0-1.9,0.2-2.9,0.6c-1,0.4-2,0.9-3,1.7
		c-1,0.7-1.9,1.6-2.8,2.7c-0.9,1.1-1.7,2.3-2.3,3.6c-0.7,1.4-1.2,2.9-1.6,4.5c-0.4,1.6-0.6,3.4-0.6,5.3c0,1.2,0.1,2.2,0.4,3.1
		c0.3,0.9,0.7,1.6,1.2,2.2c0.5,0.6,1.2,1,2,1.3c0.8,0.3,1.6,0.4,2.6,0.4c1.8,0,3.5-0.2,5-0.7c1.5-0.5,2.9-1.2,4.3-2
		c0.1-0.3,0.2-0.7,0.2-1c0.1-0.3,0.1-0.6,0.1-0.9c0-0.3,0-0.6-0.1-0.8c-0.1-0.2-0.2-0.4-0.4-0.4c-0.2-0.1-0.3-0.2-0.5-0.2
		c-0.2,0-0.4,0-0.7,0c-0.4,0-0.8-0.1-1.1-0.2c-0.3-0.1-0.6-0.3-0.8-0.4c-0.2-0.2-0.4-0.4-0.5-0.6c-0.1-0.2-0.2-0.5-0.2-0.7
		c0-0.2,0.1-0.5,0.2-0.7c0.1-0.2,0.3-0.4,0.5-0.6c0.2-0.2,0.5-0.3,0.9-0.4c0.3-0.1,0.8-0.2,1.2-0.2c1.1,0,2,0.1,2.7,0.3
		c0.7,0.2,1.3,0.6,1.7,1c0.4,0.4,0.7,1,0.8,1.6C143.2,30.6,143.2,31.4,143.2,32.2"/>
	<path fill="#414142" d="M150.5,38c-1.1,0-2-0.2-2.8-0.6c-0.8-0.4-1.5-0.9-2-1.6c-0.5-0.7-0.9-1.4-1.2-2.3c-0.3-0.9-0.4-1.8-0.4-2.7
		c0-0.6,0.1-1.3,0.2-2c0.1-0.7,0.3-1.4,0.6-2.1c0.3-0.7,0.6-1.3,1-2c0.4-0.6,0.8-1.2,1.4-1.6c0.5-0.5,1.1-0.8,1.7-1.1
		c0.6-0.3,1.4-0.4,2.1-0.4c0.6,0,1.2,0.1,1.8,0.3c0.5,0.2,1,0.5,1.4,0.9c0.4,0.4,0.7,0.8,1,1.3c0.2,0.5,0.3,1.1,0.3,1.8
		c0,0.7-0.2,1.4-0.5,2.1c-0.4,0.7-0.8,1.4-1.4,2c-0.6,0.6-1.3,1.2-2.2,1.7c-0.9,0.5-1.8,0.9-2.8,1.1c0.2,0.3,0.3,0.6,0.5,0.8
		c0.2,0.2,0.3,0.4,0.5,0.5c0.2,0.1,0.4,0.2,0.5,0.2c0.2,0,0.4,0.1,0.6,0.1c0.7,0,1.4-0.1,2.2-0.4c0.8-0.3,1.5-0.6,2.2-1
		c0.7-0.4,1.4-0.9,2-1.3c0.6-0.5,1.2-0.9,1.6-1.4l2.2,2.3c-1,1-2.1,2-3.2,2.8c-0.5,0.3-1,0.7-1.6,1c-0.6,0.3-1.2,0.6-1.8,0.9
		c-0.6,0.3-1.3,0.5-1.9,0.6C151.9,38,151.2,38,150.5,38 M148.2,30c0.4,0,0.9-0.1,1.3-0.3c0.5-0.2,0.9-0.5,1.3-0.8
		c0.4-0.3,0.8-0.7,1.1-1.1c0.3-0.4,0.4-0.8,0.4-1.1c0-0.5-0.1-0.9-0.3-1.3c-0.2-0.3-0.4-0.5-0.7-0.5c-0.5,0-0.9,0.1-1.3,0.3
		c-0.3,0.2-0.6,0.4-0.9,0.7c-0.2,0.3-0.4,0.6-0.6,1c-0.1,0.4-0.3,0.7-0.3,1.1c-0.1,0.4-0.1,0.7-0.1,1.1
		C148.3,29.4,148.2,29.7,148.2,30"/>
	<path fill="#414142" d="M158.2,34.5c0-0.8,0-1.6,0.1-2.6c0.1-1,0.2-2,0.3-3c0.1-1,0.3-2,0.5-3c0.2-0.9,0.3-1.8,0.5-2.4
		c0.1-0.5,0.4-1,0.7-1.3c0.4-0.4,0.8-0.5,1.5-0.5c0.6,0,1,0.2,1.3,0.6c0.2,0.4,0.4,0.9,0.4,1.5c0,0.2,0,0.4-0.1,0.7
		c0,0.3-0.1,0.6-0.1,1c-0.1,0.4-0.1,0.7-0.2,1.1c-0.1,0.4-0.1,0.7-0.2,1c0,0.3-0.1,0.6-0.1,0.8c0,0.2-0.1,0.4-0.1,0.5h0.3
		c0.1-0.1,0.2-0.3,0.3-0.6c0.1-0.3,0.3-0.6,0.5-1c0.2-0.4,0.4-0.8,0.6-1.2c0.2-0.4,0.4-0.8,0.6-1.2c0.2-0.4,0.4-0.7,0.5-1
		c0.2-0.3,0.3-0.5,0.4-0.6c0.4-0.6,0.8-1,1.2-1.3c0.5-0.2,1-0.3,1.6-0.3c0.6,0,1,0.2,1.4,0.7c0.3,0.5,0.5,1.1,0.5,2
		c0,0.1,0,0.3-0.1,0.6c-0.1,0.3-0.1,0.7-0.2,1.1c-0.1,0.4-0.2,0.9-0.3,1.3c-0.1,0.5-0.2,1-0.3,1.5c-0.1,0.5-0.1,1-0.2,1.5
		c-0.1,0.5-0.1,1-0.1,1.4c0,0.7,0.1,1.3,0.3,1.7c0.2,0.5,0.5,0.7,0.8,0.7c0.2,0,0.4-0.1,0.6-0.2c0.2-0.1,0.5-0.2,0.7-0.4
		c0.3-0.2,0.5-0.4,0.8-0.6c0.3-0.2,0.5-0.4,0.8-0.7c0.6-0.5,1.2-1.1,1.9-1.8l0.3,3.8l-0.9,0.6c-0.5,0.4-0.9,0.7-1.4,1.1
		c-0.5,0.4-1,0.7-1.5,0.9c-0.5,0.3-1.1,0.5-1.6,0.7c-0.6,0.2-1.2,0.3-1.8,0.3c-0.6,0-1.2-0.5-1.6-1.4c-0.4-0.9-0.6-2.2-0.6-4
		c0-0.7,0-1.4,0.1-2.2c0.1-0.8,0.2-1.6,0.3-2.6h-0.3l-4.5,8.9c-0.2,0.5-0.5,0.8-0.8,1c-0.3,0.2-0.6,0.3-1,0.3
		c-0.5,0-0.8-0.1-1.1-0.3c-0.3-0.2-0.5-0.5-0.7-0.8c-0.2-0.3-0.3-0.7-0.3-1.1C158.2,35.4,158.2,34.9,158.2,34.5"/>
	<path fill="#414142" d="M184.5,34.4c-0.4,0.4-0.9,0.8-1.5,1.2c-0.6,0.4-1.3,0.8-2,1.2c-0.7,0.4-1.4,0.7-2.2,0.9
		c-0.7,0.2-1.4,0.4-2.1,0.4c-0.6,0-1.1-0.1-1.5-0.3c-0.4-0.2-0.7-0.4-1-0.7c-0.3-0.3-0.4-0.7-0.5-1.1c-0.1-0.4-0.2-0.9-0.2-1.4
		c0-0.7,0.1-1.6,0.2-2.5c0.2-1,0.4-1.9,0.6-3c0.2-1,0.5-2,0.8-3.1c0.3-1,0.5-2,0.7-2.8c0.1-0.3,0.2-0.6,0.5-0.8
		c0.2-0.2,0.5-0.4,0.8-0.5c0.3-0.1,0.6-0.2,0.9-0.3c0.3-0.1,0.6-0.1,0.9-0.1c0.5,0,0.8,0.1,1,0.3c0.2,0.2,0.3,0.4,0.3,0.7
		c0,0.3-0.1,0.6-0.2,1.1c-0.1,0.5-0.3,1-0.4,1.6c-0.2,0.6-0.4,1.2-0.5,1.9c-0.2,0.7-0.4,1.4-0.5,2.1c-0.2,0.7-0.3,1.4-0.4,2
		c-0.1,0.7-0.2,1.2-0.2,1.8c0,0.5,0.1,0.9,0.2,1.2c0.1,0.3,0.3,0.5,0.7,0.5c0.4,0,0.9-0.1,1.4-0.4c0.5-0.3,1-0.6,1.5-1
		c0.5-0.4,1-0.8,1.5-1.3c0.5-0.4,0.9-0.8,1.3-1.1V34.4z M176.8,16.8c0-0.3,0.1-0.6,0.2-0.9c0.1-0.3,0.3-0.6,0.6-0.9
		c0.3-0.3,0.6-0.5,1-0.7c0.4-0.2,1-0.3,1.6-0.3c0.4,0,0.8,0,1.1,0.1c0.4,0.1,0.7,0.2,0.9,0.4c0.3,0.2,0.5,0.4,0.6,0.7
		c0.2,0.3,0.2,0.7,0.2,1.1c0,0.4-0.1,0.8-0.2,1.1c-0.1,0.4-0.3,0.7-0.6,1c-0.3,0.3-0.6,0.5-1,0.7c-0.4,0.2-0.9,0.3-1.5,0.3
		c-1,0-1.7-0.2-2.2-0.7C177.1,18.2,176.8,17.6,176.8,16.8"/>
	<path fill="#414142" d="M196.1,22.7c0,0.3,0,0.7-0.1,1.3c-0.1,0.5-0.2,1.1-0.3,1.7c-0.1,0.6-0.2,1.3-0.4,2
		c-0.1,0.7-0.2,1.3-0.4,1.9c-0.1,0.6-0.2,1.1-0.3,1.5c-0.1,0.4-0.1,0.7-0.1,0.9c0,0.3,0,0.6,0,0.9c0,0.3,0,0.5,0.1,0.7
		c0.1,0.2,0.1,0.4,0.3,0.5c0.1,0.1,0.3,0.2,0.5,0.2c0.3,0,0.6-0.1,0.9-0.2c0.4-0.1,0.7-0.3,1.1-0.5c0.4-0.2,0.8-0.5,1.2-0.7
		c0.4-0.3,0.8-0.6,1.2-0.8c0.4-0.3,0.7-0.6,1-0.9c0.3-0.3,0.6-0.6,0.8-0.8c0,0.4,0,0.7,0,1c0,0.3,0,0.6,0,0.9c0,0.3,0,0.6,0,0.9
		c0,0.3,0,0.6,0,1c-0.3,0.3-0.6,0.5-0.9,0.8c-0.4,0.3-0.8,0.6-1.2,0.9c-0.5,0.3-0.9,0.6-1.4,0.8c-0.5,0.3-1,0.5-1.5,0.7
		c-0.5,0.2-1,0.4-1.5,0.5c-0.5,0.1-1,0.2-1.4,0.2s-0.8-0.1-1.1-0.3c-0.3-0.2-0.6-0.4-0.8-0.7c-0.2-0.3-0.4-0.7-0.6-1.1
		c-0.2-0.4-0.3-0.9-0.4-1.4c-0.4,0.5-0.8,1-1.3,1.5c-0.5,0.5-0.9,0.8-1.4,1.2c-0.5,0.3-1,0.6-1.4,0.8c-0.5,0.2-1,0.3-1.4,0.3
		c-0.4,0-0.7-0.1-1.1-0.2c-0.3-0.1-0.6-0.3-0.9-0.6c-0.3-0.3-0.5-0.7-0.6-1.2c-0.1-0.5-0.2-1.1-0.2-1.8c0-0.9,0.1-2,0.3-3.4
		c0.2-1.4,0.5-2.9,0.8-4.7c0-0.2,0.1-0.4,0.1-0.7c0.1-0.3,0.1-0.6,0.3-1c0.1-0.3,0.2-0.7,0.4-1c0.2-0.4,0.3-0.7,0.6-1
		c0.2-0.3,0.5-0.5,0.8-0.7c0.3-0.2,0.6-0.3,1-0.3c0.6,0,1,0.1,1.3,0.2c0.3,0.1,0.4,0.3,0.4,0.5c-0.1,0.6-0.2,1.3-0.3,2
		c-0.1,0.7-0.2,1.5-0.4,2.2c-0.1,0.7-0.2,1.5-0.4,2.2c-0.1,0.7-0.2,1.3-0.3,1.9c-0.1,0.6-0.2,1-0.2,1.3c-0.1,0.3-0.1,0.5-0.1,0.5
		c0,0.2,0,0.4,0.1,0.6c0,0.2,0.1,0.4,0.2,0.5c0.1,0.1,0.2,0.3,0.3,0.4c0.1,0.1,0.3,0.1,0.4,0.1c0.3,0,0.5-0.1,0.8-0.2
		c0.3-0.1,0.5-0.3,0.7-0.6c0.2-0.2,0.4-0.5,0.6-0.9c0.2-0.4,0.3-0.8,0.4-1.2l1.7-8.7c0.1-0.3,0.3-0.5,0.7-0.7
		c0.4-0.2,0.9-0.3,1.4-0.3c0.6,0,1,0.1,1.4,0.3C195.9,22.1,196.1,22.4,196.1,22.7"/>
	<path fill="#414142" d="M199.2,31.5c0.6-0.5,1.2-1,1.6-1.4c0.4-0.4,0.7-0.7,1-1c0.3-0.3,0.5-0.6,0.8-0.9c0.2-0.3,0.5-0.7,0.8-1.1
		c0.3-0.4,0.7-0.9,1.2-1.5c0.5-0.6,1.1-1.4,1.8-2.3c0.1-0.2,0.3-0.4,0.5-0.6c0.2-0.2,0.4-0.4,0.6-0.5c0.2-0.2,0.5-0.3,0.7-0.4
		c0.3-0.1,0.6-0.1,0.9-0.1c0.5,0,1,0.1,1.3,0.2c0.3,0.1,0.5,0.3,0.6,0.4c0.1,0.2,0.2,0.4,0.2,0.5c0,0.2,0,0.4,0,0.5
		c0,0.3-0.1,0.6-0.3,0.9c-0.2,0.3-0.5,0.6-0.7,1c-0.3,0.3-0.5,0.6-0.7,0.8c-0.2,0.3-0.4,0.4-0.4,0.6c0,0.4,0,0.7,0.1,1
		c0.1,0.3,0.1,0.6,0.2,0.9c0.1,0.3,0.2,0.6,0.3,0.9c0.1,0.3,0.2,0.7,0.3,1.1c0.1,0.4,0.2,0.9,0.2,1.4c0.1,0.5,0.1,1.2,0.1,1.9
		c0.4-0.3,0.9-0.5,1.3-0.7c0.5-0.2,1-0.5,1.5-0.7c0.5-0.2,1-0.5,1.6-0.8c0.5-0.3,1.8-0.9,2.3,0.4c0.5,1.2-1.4,3-1.8,3.2
		c-0.4,0.2-0.8,0.5-1.3,0.7c-0.9,0.5-1.9,0.9-2.9,1.3c-1,0.4-2.1,0.7-3.1,0.9c-1,0.2-2,0.3-3,0.3c-0.7,0-1.3-0.1-1.9-0.2
		c-0.6-0.1-1.1-0.3-1.5-0.6c-0.4-0.3-0.8-0.6-1.1-1.1c-0.3-0.4-0.4-1-0.5-1.6c-0.2,0-0.3,0.1-0.5,0.1c-0.2,0-0.3,0-0.5,0
		c-0.2,0-0.4,0-0.5,0c-0.2,0-0.3-0.1-0.4-0.1c-0.1-0.1-0.2-0.2-0.3-0.4c-0.1-0.2-0.1-0.4-0.1-0.7c0-0.3,0.1-0.5,0.2-0.8
		c0.1-0.2,0.3-0.4,0.5-0.6c0.2-0.2,0.4-0.3,0.5-0.5C198.9,31.6,199.1,31.5,199.2,31.5 M201.4,33.6c0.1,0,0.3,0.1,0.5,0.3
		c0.2,0.2,0.4,0.4,0.6,0.6c0.2,0.2,0.5,0.4,0.8,0.6c0.3,0.2,0.6,0.3,1,0.3c0.4,0,0.8-0.1,1.1-0.2c0.3-0.1,0.5-0.3,0.7-0.6
		c0.2-0.2,0.3-0.5,0.4-0.9c0.1-0.3,0.1-0.7,0.1-1c0-0.3,0-0.6-0.1-0.9c0-0.3-0.1-0.6-0.2-0.9c-0.1-0.3-0.1-0.6-0.2-0.8
		c-0.1-0.3-0.1-0.5-0.2-0.7L201.4,33.6z"/>
</g>
<g>
	<path fill="#414142" d="M39.9,29.4c0,0-0.8,0.1-2.4-0.4c-1.9-0.6-5.1-0.7-8.2-0.6c-3,0.2-3.5,0.5-4,0.7c-0.4,0.1-1.7,0.8-2.6,0.8
		c-0.5,0,0,0-0.6,0c-0.9,0-2-0.6-2.3-0.7c-0.6-0.2-1.6-0.6-4.4-0.7c-3-0.2-6.2-0.1-8.2,0.6c-1.6,0.5-2.4,0.4-2.4,0.4
		c-0.3,1,0,1.8,0,1.8C5.7,31.6,6,32.8,6,32.8c0.4,6.4,5.1,6.4,7.6,6.3c3.5,0,5.9-1.5,6.8-5c0.3-1.2,0.4-1.8,0.9-2
		c0.4-0.3,1.8-0.3,2.3,0c0.4,0.2,0.6,0.8,0.9,2c0.9,3.5,3.3,5,6.8,5c2.4,0,7.1,0.1,7.6-6.3c0,0,0.3-1.2,1.2-1.6
		C39.9,31.2,40.2,30.4,39.9,29.4z M6.9,30.5c0,0.1-0.1,0.1-0.1,0.1H5.6c-0.1,0-0.1-0.1-0.1-0.1v-0.3c0-0.1,0.1-0.1,0.1-0.1h1.2
		c0.1,0,0.1,0.1,0.1,0.1V30.5z M12.1,38.3c-3.7-0.2-4.6-3.1-4.6-5c0-2,0.2-2.7,1.9-3.2c1.7-0.5,10.1-1,10.1,1.6
		C19.5,34.3,19,38.6,12.1,38.3z M37.2,33.3c0,2-0.9,4.9-4.6,5c-6.9,0.3-7.3-4-7.4-6.5c-0.1-2.6,8.3-2.2,10.1-1.7
		C37,30.6,37.2,31.3,37.2,33.3z M39.2,30.5c0,0.1-0.1,0.1-0.1,0.1h-1.2c-0.1,0-0.1-0.1-0.1-0.1v-0.3c0-0.1,0.1-0.1,0.1-0.1H39
		c0.1,0,0.1,0.1,0.1,0.1V30.5z"/>
</g>
<path fill="none" d="M20.9,22.2c0.7-0.1,1.5,0.1,2.1,0.5c0.9,0.6,1.4,1.6,1.4,2.7c0,0.3,0.2,0.6,0.5,0.6c0,0,0,0,0,0
	c0.3,0,0.6-0.2,0.6-0.5c0.1-1.5-0.7-2.9-1.9-3.7c-0.9-0.6-1.9-0.8-2.9-0.6c-0.3,0-0.5,0.3-0.5,0.6C20.3,22,20.6,22.2,20.9,22.2z"/>
<path fill="none" d="M14,22.8c1.1,0.2,2,0.9,2.4,1.9c0.1,0.3,0.4,0.4,0.7,0.3c0.3-0.1,0.4-0.4,0.3-0.7c-0.5-1.4-1.8-2.4-3.2-2.6
	c-1.1-0.2-2.2,0.1-3.1,0.7C10.2,23,9.5,24,9.4,25.1c-0.1,0.3,0.2,0.6,0.5,0.7c0,0,0.1,0,0.1,0c0.3,0,0.5-0.2,0.6-0.5
	c0.1-0.8,0.6-1.5,1.2-2C12.4,22.8,13.2,22.6,14,22.8z"/>
<path fill="none" d="M27.6,25.1c0.2,0,0.3-0.1,0.4-0.2c1.6-1.8,4.3-1.9,6-0.4c0.2,0.2,0.6,0.2,0.8,0c0.2-0.2,0.2-0.6,0-0.8
	c-2.2-2-5.7-1.8-7.6,0.5c-0.2,0.2-0.2,0.6,0,0.8C27.3,25,27.5,25.1,27.6,25.1z"/>
<path fill="#F06597" d="M14.6,27.2c5.1,0,5.7,1.5,7.7,1.5c1.9,0,3.6-1.5,7.1-1.5c2.8,0,6.8,0.5,7.4,0.4c2.1-0.2,3.8-2,3.8-4.2
	c0-0.7-0.2-1.3-0.4-1.8c-0.1-0.1-0.1-0.2-0.2-0.2c-0.4-0.4-0.9-0.6-1.5-0.6c-0.7,0-1.4,0.5-1.8,1.1c-0.1,0.3-0.5,0.4-0.8,0.2
	c-0.3-0.1-0.4-0.5-0.2-0.8c0.5-1,1.6-1.7,2.7-1.7c0.3,0,0.7,0,1,0.1c0.3-0.6,0.5-1.4,0.5-2.1c0-2-1.1-3.7-2.8-4.5
	c-1-0.3-2.2-0.1-3.1,0.8c-1.2,1.2-1.2,3.1,0,4.3c0.2,0.2,0.2,0.6,0,0.8c0,0,0,0-0.1,0.1c0,0.1-0.1,0.1-0.2,0.2
	c-0.1,0.1-0.2,0.1-0.3,0.1c-0.2,0-0.4-0.1-0.5-0.3c-0.9-1.4-2.8-1.9-4.2-1c-0.3,0.2-0.6,0.5-0.9,0.8c-0.2,0.3-0.5,0.3-0.8,0.1
	c-0.3-0.2-0.3-0.5-0.1-0.8c0.3-0.4,0.7-0.8,1.2-1.1c1.2-0.7,2.6-0.8,3.9-0.3c-0.2-1.3,0.1-2.7,1.2-3.7c0.5-0.5,1-0.8,1.6-1
	c-0.2-0.9-0.7-1.6-1.5-2.1c-0.2-0.1-0.5-0.2-0.8-0.2c-0.6,0-1.1,0.2-1.5,0.6c-0.4,0.4-0.7,0.9-0.7,1.5c0,0.3-0.3,0.5-0.6,0.5
	c0,0,0,0,0,0c-0.3,0-0.6-0.3-0.5-0.6c0-0.9,0.4-1.7,1-2.2c0.2-0.2,0.5-0.4,0.7-0.5c-0.8-2-2.8-3.4-5.1-3.4c-1.2,0-2.3,0.4-3.2,1v3.9
	c0,2.4,1.9,4.3,4.3,4.3c0.3,0,0.6,0.3,0.6,0.6S27.4,16,27.1,16c-1.3,0-2.5-0.5-3.5-1.3c-0.3,1-0.9,2-1.7,2.7c-1,0.9-2.2,1.3-3.5,1.3
	c-0.1,0-0.3,0-0.4,0c-0.3,0-0.6-0.3-0.5-0.6c0-0.3,0.3-0.6,0.6-0.5c1.1,0.1,2.2-0.3,3.1-1c0.9-0.7,1.4-1.8,1.5-2.9
	c-0.6-0.9-1-1.9-1-3.1V6.6c-0.9-0.6-2-1-3.2-1c-2.3,0-4.3,1.4-5.1,3.4c0.2,0.3,0.6,0.6,0.9,0.7c0.5,0.1,1,0.1,1.4-0.1c0,0,0,0,0,0
	c0,0,0.1-0.1,0.1-0.1c0.7-0.4,1.6-0.6,2.5-0.3c0.3,0.1,0.5,0.4,0.4,0.7c-0.1,0.3-0.4,0.5-0.7,0.4c-0.5-0.1-1.1-0.1-1.6,0.2
	c-0.5,0.3-0.8,0.7-1,1.3c-0.2,0.7,0,1.5,0.5,2c0.2,0.2,0.2,0.6,0,0.8c-0.1,0.1-0.3,0.2-0.4,0.2c-0.1,0-0.3-0.1-0.4-0.2
	c-0.8-0.8-1.1-2-0.8-3.1c0-0.2,0.1-0.4,0.2-0.5c-0.2,0-0.4-0.1-0.6-0.1c-0.7-0.2-1.3-0.7-1.6-1.3c-1.4,0.2-2.5,1.3-2.8,2.7
	c0.6,0.2,1.1,0.5,1.6,1c1.6,1.6,1.6,4.3,0,5.9c-0.1,0.1-0.3,0.2-0.4,0.2c-0.1,0-0.3-0.1-0.4-0.2c-0.2-0.2-0.2-0.6,0-0.8
	c1.2-1.2,1.2-3.1,0-4.3c-0.8-0.8-2-1.1-3-0.8c-1.7,0.8-2.9,2.5-2.9,4.5c0,0.7,0.2,1.4,0.4,2c0.1,0,0.3,0,0.4,0
	c0.9,0,1.7,0.3,2.3,0.9c0.6,0.6,1,1.4,1,2.2c0,0.3-0.2,0.6-0.5,0.6c0,0,0,0,0,0c-0.3,0-0.6-0.2-0.6-0.5c0-0.6-0.3-1.1-0.7-1.5
	c-0.4-0.4-0.9-0.6-1.5-0.6c-0.3,0-0.6,0.1-0.9,0.2c-0.5,0.7-0.7,1.5-0.7,2.4c0,2.2,1.7,4,3.8,4.2C8.1,27.9,11.8,27.2,14.6,27.2z
	 M27.2,24.1c2-2.2,5.4-2.4,7.6-0.5c0.2,0.2,0.3,0.6,0,0.8c-0.2,0.2-0.6,0.3-0.8,0c-1.8-1.6-4.5-1.4-6,0.4c-0.1,0.1-0.3,0.2-0.4,0.2
	c-0.1,0-0.3,0-0.4-0.1C27,24.7,27,24.3,27.2,24.1z M20.8,21c1-0.1,2.1,0.1,2.9,0.6c1.2,0.8,2,2.2,1.9,3.7c0,0.3-0.3,0.5-0.6,0.5
	c0,0,0,0,0,0c-0.3,0-0.6-0.3-0.5-0.6c0.1-1.1-0.5-2.1-1.4-2.7c-0.6-0.4-1.4-0.6-2.1-0.5c-0.3,0-0.6-0.2-0.6-0.5
	C20.2,21.4,20.4,21.1,20.8,21z M10.5,25.3c0,0.3-0.3,0.5-0.6,0.5c0,0-0.1,0-0.1,0c-0.3-0.1-0.5-0.3-0.5-0.7c0.2-1.1,0.8-2.1,1.7-2.7
	c0.9-0.7,2-0.9,3.1-0.7c1.5,0.2,2.7,1.3,3.2,2.6c0.1,0.3,0,0.6-0.3,0.7c-0.3,0.1-0.6,0-0.7-0.3c-0.4-1-1.3-1.7-2.4-1.9
	c-0.8-0.1-1.6,0.1-2.3,0.5C11.1,23.8,10.6,24.5,10.5,25.3z"/>
</svg>
