<?xml version="1.0" encoding="UTF-8" standalone="no"?>
<svg width="164px" height="32px" viewBox="0 0 164 32" version="1.1" xmlns="http://www.w3.org/2000/svg" xmlns:xlink="http://www.w3.org/1999/xlink" xmlns:sketch="http://www.bohemiancoding.com/sketch/ns">
    <!-- Generator: Sketch Beta 3.3.2 (12041) - http://www.bohemiancoding.com/sketch -->
    <title>logo-mention</title>
    <desc>Created with Sketch Beta.</desc>
    <defs></defs>
    <g id="UX" stroke="none" stroke-width="1" fill="none" fill-rule="evenodd" sketch:type="MSPage">
        <g id="home" sketch:type="MSArtboardGroup" transform="translate(-39.000000, -25.000000)">
            <g id="header" sketch:type="MSLayerGroup">
                <g id="nav" transform="translate(39.000000, 21.000000)" sketch:type="MSShapeGroup">
                    <g id="logo-mention" transform="translate(0.000000, 4.000000)">
                        <g id="Page-1">
                            <g id="Brand-Assets">
                                <g id="logo-mention">
                                    <g id="Page-1">
                                        <g id="Mention-•-Logo">
                                            <path d="M39.1786608,23.6543256 L40.633348,23.6543256 C40.9967489,23.6543256 41.1954273,23.5534884 41.1954273,22.7773023 L41.1954273,13.3023256 C41.1954273,12.4930233 41.0628546,12.2906047 40.633348,12.2906047 L39.1786608,12.2906047 L39.1786608,9.76148837 L41.7578678,9.76148837 C43.3776388,9.76148837 44.864837,9.59293023 45.5927225,9.42437209 L45.5927225,12.6615814 C46.5843084,10.5034419 48.171207,9.32316279 50.6174802,9.32316279 C53.196326,9.32316279 54.8493304,10.5369302 55.4110485,13.0660465 C56.2707841,10.6381395 57.9898943,9.32316279 60.7009515,9.32316279 C64.2052775,9.32316279 66.0237269,11.3123721 66.0237269,15.7298605 L66.0237269,22.7769302 C66.0237269,23.5531163 66.2216828,23.6539535 66.5854449,23.6539535 L68.0397709,23.6539535 L68.0397709,26.1830698 L59.7751101,26.1830698 L59.7751101,23.6539535 L60.9982467,23.6539535 C61.36237,23.6539535 61.560326,23.5531163 61.560326,22.7769302 L61.560326,16 C61.560326,13.4705116 60.7338238,12.3579535 58.9157357,12.3579535 C56.8657357,12.3579535 55.8412775,14.0104186 55.8412775,17.1464186 L55.8412775,22.7773023 C55.8412775,23.5534884 56.0395947,23.6543256 56.4029956,23.6543256 L57.7915771,23.6543256 L57.7915771,26.1834419 L49.593022,26.1834419 L49.593022,23.6543256 L50.8161586,23.6543256 C51.1799207,23.6543256 51.3782379,23.5534884 51.3782379,22.7773023 L51.3782379,15.6963721 C51.3782379,13.4708837 50.4527577,12.3579535 48.7332863,12.3579535 C46.6832863,12.3579535 45.6588282,14.0104186 45.6588282,17.1464186 L45.6588282,22.7773023 C45.6588282,23.5534884 45.8575066,23.6543256 46.2209075,23.6543256 L47.5101498,23.6543256 L47.5101498,26.1834419 L39.179022,26.1834419 L39.179022,23.6543256 L39.1786608,23.6543256 L39.1786608,23.6543256 Z" id="Shape" fill="#5A7281"></path>
                                            <path d="M73.4586344,18.8323721 C73.5576123,21.9002791 75.045533,23.924093 78.0535242,23.924093 C80.3347137,23.924093 81.6568282,22.743814 82.4175859,20.7546047 L84.930326,21.9006512 C84.0377181,24.5313488 81.8558678,26.6221395 77.6901233,26.6221395 C71.8385022,26.6221395 68.8966167,23.0135814 68.8966167,17.9557209 C68.8966167,12.8301395 72.3012423,9.32353488 77.2606167,9.32353488 C82.3518414,9.32353488 85.1611542,12.5607442 85.1611542,17.9895814 L85.1611542,18.8323721 L73.4586344,18.8323721 L73.4586344,18.8323721 Z M73.3925286,16.5395349 L80.6652423,16.5395349 C80.5994978,13.2011163 79.6075507,11.92 77.2606167,11.92 C74.9129604,11.92 73.5904846,13.3023256 73.3925286,16.5395349 L73.3925286,16.5395349 L73.3925286,16.5395349 Z" id="Shape" fill="#5A7281"></path>
                                            <path d="M92.6975683,12.6954419 C93.7223877,10.436093 95.573348,9.32353488 98.1525551,9.32353488 C101.557903,9.32353488 103.375991,11.3466047 103.375991,15.4604651 L103.375991,22.7776744 C103.375991,23.5538605 103.574308,23.6546977 103.937709,23.6546977 L105.392035,23.6546977 L105.392035,26.183814 L97.0612687,26.183814 L97.0612687,23.6546977 L98.350511,23.6546977 C98.7142731,23.6546977 98.9125903,23.5538605 98.9125903,22.7776744 L98.9125903,15.5613023 C98.9125903,13.268093 98.0860881,12.2906047 96.2676388,12.2906047 C94.0529163,12.2906047 92.7633128,13.976186 92.7633128,17.6517209 L92.7633128,22.7773023 C92.7633128,23.5534884 92.9612687,23.6543256 93.3250308,23.6543256 L94.6146344,23.6543256 L94.6146344,26.1834419 L86.2842291,26.1834419 L86.2842291,23.6543256 L87.7385551,23.6543256 C88.1023172,23.6543256 88.3009956,23.5534884 88.3009956,22.7773023 L88.3009956,13.3023256 C88.3009956,12.4930233 88.1684229,12.2906047 87.7385551,12.2906047 L86.2842291,12.2906047 L86.2842291,9.76148837 L88.8623524,9.76148837 C90.4824846,9.76148837 91.9696828,9.59293023 92.6975683,9.42437209 L92.6975683,12.6954419 L92.6975683,12.6954419 Z" id="Shape" fill="#5A7281"></path>
                                            <path d="M107.902969,21.496186 L107.902969,12.2906047 L105.721119,12.2906047 L105.721119,10.0316279 C105.721119,10.0316279 107.077189,9.9304186 106.977128,9.9304186 C108.101286,9.728 108.828449,9.28967442 108.960661,8.07590698 L109.291551,5.10883721 L112.366009,5.10883721 L112.366009,9.76223256 L115.572317,9.76223256 L115.572317,12.2909767 L112.26667,12.2909767 L112.26667,21.4284651 C112.26667,23.216 112.895216,23.8232558 114.316308,23.8232558 C115.01096,23.8232558 115.440106,23.687814 115.837463,23.5534884 L115.837463,26.1499535 C115.209278,26.352 114.118352,26.5882791 112.961322,26.5882791 C109.324784,26.587907 107.902969,25.1713488 107.902969,21.496186" id="Shape" fill="#5A7281"></path>
                                            <path d="M116.959815,23.6543256 L118.447374,23.6543256 C118.811137,23.6543256 118.976581,23.4853953 118.976581,22.7773023 L118.976581,13.639814 C118.976581,12.5942326 118.811137,12.2906047 118.248696,12.2906047 L116.959815,12.2906047 L116.959815,9.76186047 L119.604405,9.76186047 C121.224537,9.76186047 122.712097,9.59330233 123.472493,9.42437209 L123.472493,22.7773023 C123.472493,23.4850233 123.637938,23.6543256 124.0017,23.6543256 L125.389921,23.6543256 L125.389921,26.1830698 L116.960176,26.1830698 L116.960176,23.6543256 L116.959815,23.6543256 L116.959815,23.6543256 Z M118.414141,5.47944186 C118.414141,3.96204651 119.505066,2.7144186 121.191665,2.7144186 C122.811436,2.7144186 123.968467,3.96204651 123.968467,5.47944186 C123.968467,6.99683721 122.811436,8.24483721 121.191665,8.24483721 C119.505427,8.24446512 118.414141,6.99683721 118.414141,5.47944186 L118.414141,5.47944186 L118.414141,5.47944186 Z" id="Shape" fill="#5A7281"></path>
                                            <path d="M126.611974,17.9553488 C126.611974,12.8301395 130.083066,9.32316279 135.272907,9.32316279 C140.331621,9.32316279 143.736608,12.7966512 143.736608,17.9553488 C143.736608,23.1144186 140.298749,26.6217674 135.141057,26.6217674 C130.017322,26.6217674 126.611974,23.1486512 126.611974,17.9553488 M139.273568,18.1916279 L139.273568,17.7533023 C139.273568,13.8076279 137.984326,12.0208372 135.207524,12.0208372 C132.397128,12.0208372 131.107885,13.8076279 131.107885,17.7533023 L131.107885,18.1916279 C131.107885,22.1373023 132.364256,23.9237209 135.174291,23.9237209 C137.984326,23.9237209 139.273568,22.1034419 139.273568,18.1916279" id="Shape" fill="#5A7281"></path>
                                            <path d="M151.305533,12.6954419 C152.330352,10.436093 154.181313,9.32353488 156.76052,9.32353488 C160.165507,9.32353488 161.983956,11.3466047 161.983956,15.4604651 L161.983956,22.7776744 C161.983956,23.5538605 162.182273,23.6546977 162.545674,23.6546977 L164,23.6546977 L164,26.183814 L155.669233,26.183814 L155.669233,23.6546977 L156.958476,23.6546977 C157.321877,23.6546977 157.520555,23.5538605 157.520555,22.7776744 L157.520555,15.5613023 C157.520555,13.268093 156.693692,12.2906047 154.875604,12.2906047 C152.660881,12.2906047 151.371278,13.976186 151.371278,17.6517209 L151.371278,22.7773023 C151.371278,23.5534884 151.569233,23.6543256 151.932996,23.6543256 L153.222599,23.6543256 L153.222599,26.1834419 L144.89111,26.1834419 L144.89111,23.6543256 L146.345797,23.6543256 C146.709559,23.6543256 146.908238,23.5534884 146.908238,22.7773023 L146.908238,13.3023256 C146.908238,12.4930233 146.775304,12.2906047 146.345797,12.2906047 L144.89111,12.2906047 L144.89111,9.76148837 L147.469956,9.76148837 C149.090088,9.76148837 150.577286,9.59293023 151.305172,9.42437209 L151.305172,12.6954419 L151.305533,12.6954419 L151.305533,12.6954419 Z" id="Shape" fill="#5A7281"></path>
                                            <path d="M15.6869251,0 C7.02274009,0 0,7.1627907 0,16 C0,24.836093 7.02274009,32 15.6869251,32 C24.3511101,32 31.373489,24.836093 31.373489,16 C31.373489,7.1627907 24.3511101,0 15.6869251,0 L15.6869251,0 L15.6869251,0 Z M22.7230308,26.3813953 L15.6869251,21.192186 L8.65081938,26.3813953 L11.332978,18.0055814 L4.2542467,12.6746047 L13.0199383,12.6746047 L15.6869251,4.26902326 L18.3539119,12.6746047 L27.1188811,12.6746047 L20.040511,18.0055814 L22.7230308,26.3813953 L22.7230308,26.3813953 Z" id="Shape" fill="#00A0DE"></path>
                                        </g>
                                    </g>
                                </g>
                            </g>
                        </g>
                    </g>
                </g>
            </g>
        </g>
    </g>
</svg>