<?xml version="1.0" encoding="UTF-8" standalone="no"?>
<svg width="700px" height="200px" viewBox="0 0 700 200" version="1.1" xmlns="http://www.w3.org/2000/svg" xmlns:xlink="http://www.w3.org/1999/xlink" xmlns:sketch="http://www.bohemiancoding.com/sketch/ns">
    <!-- Generator: Sketch 3.4.4 (17249) - http://www.bohemiancoding.com/sketch -->
    <title>OUTRO logo SVG</title>
    <desc>Created with Sketch.</desc>
    <defs></defs>
    <g id="Page-1" stroke="none" stroke-width="1" fill="none" fill-rule="evenodd" sketch:type="MSPage">
        <g id="OUTRO-logo-SVG" sketch:type="MSArtboardGroup" fill="#6BE2C2">
            <g id="OUTRO-logo" sketch:type="MSLayerGroup" transform="translate(53.000000, 43.000000)">
                <path d="M95.9390182,57.0760386 C95.9390182,77.2755357 79.5475636,93.7081351 59.4006545,93.7081351 C39.0001091,93.7081351 22.4008364,77.2755357 22.4008364,57.0760386 C22.4008364,37.0471675 39.0001091,20.7523815 59.4006545,20.7523815 C79.8895636,20.7523815 95.9390182,36.7075561 95.9390182,57.0760386 M59.2484727,0.461008762 C25.4706545,0.461008762 0.000654545454,24.7998278 0.000654545454,57.0760386 C0.000654545454,88.9962316 26.0237455,113.999508 59.2484727,113.999508 C92.4699273,113.999508 118.494655,88.9962316 118.494655,57.0760386 C118.494655,25.3297529 92.4699273,0.461008762 59.2484727,0.461008762" id="Fill-1" sketch:type="MSShapeGroup"></path>
                <path d="M215.521364,66.3687589 C215.521364,83.4887843 205.559182,93.7082992 188.871545,93.7082992 C171.894273,93.7082992 161.758636,83.4887843 161.758636,66.3687589 L161.758636,0.925472508 L139.666091,0.925472508 L139.666091,66.3687589 C139.666091,95.749249 158.461364,113.999672 188.717727,113.999672 C218.877545,113.999672 237.613909,95.749249 237.613909,66.3687589 L237.613909,0.925472508 L215.521364,0.925472508 L215.521364,66.3687589 Z" id="Fill-4" sketch:type="MSShapeGroup"></path>
                <path d="M254.766927,21.2168452 L288.909655,21.2168452 L288.909655,113.225292 L311.0022,113.225292 L311.0022,21.2168452 L345.300382,21.2168452 L345.300382,0.925472508 L254.766927,0.925472508 L254.766927,21.2168452 Z" id="Fill-6" sketch:type="MSShapeGroup"></path>
                <path d="M434.907655,40.3468124 C434.907655,53.5539236 426.722564,60.2509953 410.576564,60.2509953 L386.862382,60.2509953 L386.862382,21.2170093 L410.576564,21.2170093 C426.722564,21.2170093 434.907655,27.6532201 434.907655,40.3468124 M456.075655,39.8825128 C456.075655,15.1253318 439.491109,0.925636571 410.576564,0.925636571 L364.7682,0.925636571 L364.7682,113.225456 L386.862382,113.225456 L386.862382,80.542368 L410.576564,80.542368 C411.872564,80.542368 413.199655,80.542368 414.480927,80.4718207 L434.204018,113.225456 L459.618382,113.225456 L434.652382,75.9174182 C448.491109,69.622302 456.075655,56.9188658 456.075655,39.8825128" id="Fill-8" sketch:type="MSShapeGroup"></path>
                <path d="M534.636327,93.7082992 C514.234145,93.7082992 497.638145,77.2740592 497.638145,57.0762027 C497.638145,37.0473316 514.234145,20.7525455 534.636327,20.7525455 C555.125236,20.7525455 571.173055,36.7077201 571.173055,57.0762027 C571.173055,77.2740592 554.784873,93.7082992 534.636327,93.7082992 M534.482509,0.461172825 C500.706327,0.461172825 475.233055,24.7999919 475.233055,57.0762027 C475.233055,88.9963957 501.259418,113.999672 534.482509,113.999672 C567.7056,113.999672 593.730327,88.9963957 593.730327,57.0762027 C593.730327,25.329917 567.7056,0.461172825 534.482509,0.461172825" id="Fill-10" sketch:type="MSShapeGroup"></path>
            </g>
        </g>
    </g>
</svg>